HIERARCHY
ROOT SpineBase
{
  OFFSET 0.000000 0.000000 0.000000
  CHANNELS 6 Xposition Yposition Zposition Zrotation Xrotation Yrotation
  JOINT SpineMid
  {
    OFFSET 0.000000 31.807427 0.000000
    CHANNELS 3 Zrotation Xrotation Yrotation
    JOINT SpineShoulder
    {
      OFFSET 0.197029 23.564535 -0.786264
      CHANNELS 3 Zrotation Xrotation Yrotation
      JOINT Neck
      {
        OFFSET 0.129272 7.773172 -0.605038
        CHANNELS 3 Zrotation Xrotation Yrotation
        JOINT Head
        {
          OFFSET 3.586812 13.898660 0.100475
          CHANNELS 3 Zrotation Xrotation Yrotation
          End Site
          {
            OFFSET 0 0 0
          }
        }
      }
      JOINT ShoulderLeft
      {
        OFFSET -15.135343 -3.339344 -8.238337
        CHANNELS 3 Zrotation Xrotation Yrotation
        JOINT ElbowLeft
        {
          OFFSET -7.559153 -27.083697 -1.306849
          CHANNELS 3 Zrotation Xrotation Yrotation
          JOINT WristLeft
          {
            OFFSET 0.773052 -22.046071 -3.941175
            CHANNELS 3 Zrotation Xrotation Yrotation
            JOINT HandLeft
            {
              OFFSET 0.591895 -6.806698 -0.842394
              CHANNELS 3 Zrotation Xrotation Yrotation
              JOINT HandTipLeft
              {
                OFFSET 0.225736 -8.022047 -0.826732
                CHANNELS 3 Zrotation Xrotation Yrotation
                End Site
                {
                  OFFSET 0 0 0
                }
              }
              JOINT ThumbLeft
              {
                OFFSET 4.125177 0.842547 0.814833
                CHANNELS 3 Zrotation Xrotation Yrotation
                End Site
                {
                  OFFSET 0 0 0
                }
              }
            }
          }
        }
      }
      JOINT ShoulderRight
      {
        OFFSET 16.716112 -5.803991 6.052006
        CHANNELS 3 Zrotation Xrotation Yrotation
        JOINT ElbowRight
        {
          OFFSET 4.378626 -29.172051 2.742751
          CHANNELS 3 Zrotation Xrotation Yrotation
          JOINT WristRight
          {
            OFFSET 3.086753 -21.658269 -2.623360
            CHANNELS 3 Zrotation Xrotation Yrotation
            JOINT HandRight
            {
              OFFSET 0.216665 -4.098045 -1.279970
              CHANNELS 3 Zrotation Xrotation Yrotation
              JOINT HandTipRight
              {
                OFFSET -0.242145 -6.440567 0.538610
                CHANNELS 3 Zrotation Xrotation Yrotation
                End Site
                {
                  OFFSET 0 0 0
                }
              }
              JOINT ThumbRight
              {
                OFFSET -1.517552 -0.779678 -2.097158
                CHANNELS 3 Zrotation Xrotation Yrotation
                End Site
                {
                  OFFSET 0 0 0
                }
              }
            }
          }
        }
      }
    }
  }
  JOINT HipLeft
  {
    OFFSET -5.798018 1.034130 -6.672978
    CHANNELS 3 Zrotation Xrotation Yrotation
    JOINT KneeLeft
    {
      OFFSET -4.384508 -33.454525 2.026362
      CHANNELS 3 Zrotation Xrotation Yrotation
      JOINT AnkleLeft
      {
        OFFSET -4.131827 -35.692277 8.004898
        CHANNELS 3 Zrotation Xrotation Yrotation
        JOINT FootLeft
        {
          OFFSET 4.375178 -5.441774 -10.931257
          CHANNELS 3 Zrotation Xrotation Yrotation
          End Site
          {
            OFFSET 0 0 0
          }
        }
      }
    }
  }
  JOINT HipRight
  {
    OFFSET 7.050376 0.005922 -1.038023
    CHANNELS 3 Zrotation Xrotation Yrotation
    JOINT KneeRight
    {
      OFFSET -2.628884 -34.564641 2.842663
      CHANNELS 3 Zrotation Xrotation Yrotation
      JOINT AnkleRight
      {
        OFFSET -5.257276 -35.000295 8.225607
        CHANNELS 3 Zrotation Xrotation Yrotation
        JOINT FootRight
        {
          OFFSET 3.678158 -5.571870 -11.290086
          CHANNELS 3 Zrotation Xrotation Yrotation
          End Site
          {
            OFFSET 0 0 0
          }
        }
      }
    }
  }
}
MOTION
Frames: 8
Frame Time: 0.033333
-62.401742 82.781566 397.798843 -0.000000 0.000000 -23.680944 0.000000 0.000000 23.680944 -0.000000 0.000000 0.000000 -0.000000 0.000000 0.000000 0.000000 0.000000 0.000000 -0.000000 0.000000 0.000000 -0.000000 0.000000 0.000000 -0.000000 0.000000 0.000000 -0.000000 0.000000 0.000000 0.000000 0.000000 0.000000 0.000000 0.000000 0.000000 -0.000000 0.000000 0.000000 -0.000000 0.000000 0.000000 -0.000000 0.000000 0.000000 -0.000000 0.000000 0.000000 0.000000 0.000000 0.000000 0.000000 0.000000 0.000000 0.000000 0.000000 23.680944 -0.000000 0.000000 0.000000 -0.000000 0.000000 0.000000 0.000000 0.000000 0.000000 0.000000 0.000000 23.680944 -0.000000 0.000000 0.000000 -0.000000 0.000000 0.000000 0.000000 0.000000 0.000000
-62.321769 82.803837 397.684196 0.101481 -0.063771 -24.136641 -0.118686 0.016699 24.136715 -0.000000 0.000000 0.000000 -0.000000 0.000000 0.000000 0.000000 0.000000 0.000000 0.024621 0.976955 -0.273979 -0.384940 0.641373 0.392929 -1.171911 0.379992 0.230847 1.494454 -0.092661 -0.279243 0.000000 0.000000 0.000000 0.000000 0.000000 0.000000 -0.000000 0.000000 0.000000 -0.672814 1.068288 0.239955 0.333116 -2.495548 -0.210262 1.385694 3.828795 -0.082513 0.000000 0.000000 0.000000 0.000000 0.000000 0.000000 -0.118686 0.016699 24.136715 -0.000000 0.000000 0.000000 -1.131497 -3.341292 -0.479037 0.000000 0.000000 0.000000 -0.118686 0.016699 24.136715 0.621298 0.678007 0.040587 -0.777905 -1.471037 -0.263121 0.000000 0.000000 0.000000
-62.285563 82.823002 397.576415 0.182016 -0.113700 -24.539379 -0.212797 0.027835 24.539612 -0.000000 0.000000 0.000000 -0.813769 -0.441251 0.116413 0.000000 0.000000 0.000000 0.054045 1.859230 -0.522104 -0.733889 1.143112 0.740532 -2.161336 0.506740 0.386234 2.729270 0.050103 -0.459280 0.000000 0.000000 0.000000 0.000000 0.000000 0.000000 -0.000000 0.000000 0.000000 -1.223246 1.984734 0.451992 0.350791 -4.939710 -0.356456 2.757110 7.180684 -0.297090 0.000000 0.000000 0.000000 0.000000 0.000000 0.000000 -0.212797 0.027835 24.539612 -0.000000 0.000000 0.000000 -1.970881 -5.709053 -0.826978 0.000000 0.000000 0.000000 -0.212797 0.027835 24.539612 1.022480 1.122616 0.061883 -1.192246 -2.238377 -0.495222 0.000000 0.000000 0.000000
-62.293123 82.839061 397.475500 0.241573 -0.149766 -24.890229 -0.282168 0.034180 24.890629 -0.000000 0.000000 0.000000 -1.095979 -0.559551 0.146618 0.000000 0.000000 0.000000 0.086979 2.643438 -0.743447 -1.040479 1.504434 1.041585 -2.987843 0.426556 0.476919 3.722817 0.393698 -0.569719 0.000000 0.000000 0.000000 0.000000 0.000000 0.000000 -0.000000 0.000000 0.000000 -1.649791 2.750584 0.631000 0.055692 -7.252119 -0.451759 4.168393 10.076494 -0.627804 0.000000 0.000000 0.000000 0.000000 0.000000 0.000000 -0.282168 0.034180 24.890629 -0.000000 0.000000 0.000000 -2.426734 -6.908417 -0.965630 0.000000 0.000000 0.000000 -0.977189 0.573844 24.801638 1.612660 0.561531 0.181174 -1.243398 -2.298682 -0.682973 0.000000 0.000000 0.000000
-62.344451 82.852015 397.381451 0.280118 -0.171944 -25.190103 -0.326662 0.036366 25.190627 -0.000000 0.000000 0.000000 -1.295185 -0.609359 0.159275 0.000000 0.000000 0.000000 0.122216 3.326794 -0.937172 -1.299623 1.726377 1.295358 -3.670063 0.176186 0.513747 4.492114 0.908823 -0.631427 0.000000 0.000000 0.000000 0.000000 0.000000 0.000000 -0.000000 0.000000 0.000000 -1.951302 3.367332 0.772902 -0.526217 -9.334468 -0.506961 5.631234 12.486195 -1.054084 0.000000 0.000000 0.000000 0.000000 0.000000 0.000000 -0.326662 0.036366 25.190627 -0.000000 0.000000 0.000000 -2.449786 -6.845448 -0.852024 0.000000 0.000000 0.000000 -0.992847 1.181787 25.087737 1.306657 0.021661 0.204073 -0.938631 -1.665291 -0.823681 0.000000 0.000000 0.000000
-62.439546 82.861863 397.294268 0.297608 -0.180208 -25.439755 -0.346162 0.034892 25.440329 -0.000000 0.000000 0.000000 -1.411485 -0.590642 0.154870 0.000000 0.000000 0.000000 0.158662 3.907070 -1.102544 -1.507467 1.811212 1.501581 -4.224239 -0.217333 0.506540 5.051750 1.572541 -0.658078 0.000000 0.000000 0.000000 0.000000 0.000000 0.000000 -0.000000 0.000000 0.000000 -2.126911 3.836418 0.874616 -1.345207 -11.087930 -0.527484 7.116194 14.355070 -1.543065 0.000000 0.000000 0.000000 0.000000 0.000000 0.000000 -0.346162 0.034892 25.440329 -0.000000 0.000000 0.000000 -2.045463 -5.528783 -0.492951 0.000000 0.000000 0.000000 -0.861136 1.997824 25.328729 0.594968 -0.869549 0.198324 -0.292150 -0.367829 -0.924777 0.000000 0.000000 0.000000
-62.578606 82.878443 397.220716 0.289941 -0.180162 -25.582764 -0.339312 0.037297 25.583330 0.761707 -0.273840 0.065659 -2.189903 0.110555 -0.004313 0.000000 0.000000 0.000000 -0.542585 4.581384 -1.282642 -1.669882 1.557567 1.627564 -4.804215 -0.434937 0.512674 5.291055 2.618598 -0.639277 0.000000 0.000000 0.000000 0.000000 0.000000 0.000000 -0.761401 0.274689 -0.062014 -2.195576 3.849692 0.887430 -2.089072 -13.678987 -0.637323 7.783461 16.509100 -1.909768 0.000000 0.000000 0.000000 0.000000 0.000000 0.000000 -0.339312 0.037297 25.583330 -0.000000 0.000000 0.000000 -0.390706 0.181915 0.931283 0.000000 0.000000 0.000000 -0.497121 2.856068 25.476870 -0.625692 -1.864657 0.095986 1.581155 3.785294 -1.067491 0.000000 0.000000 0.000000
-62.765008 82.908018 397.259779 0.279303 -0.132821 -25.623311 -0.309274 -0.001028 25.623632 -0.000000 0.000000 0.000000 -1.456878 0.497416 -0.111143 0.000000 0.000000 0.000000 0.309928 4.599494 -1.310219 -1.772603 1.326804 1.706774 -5.691267 -1.519366 0.410925 5.831786 4.986021 -0.576187 0.000000 0.000000 0.000000 0.000000 0.000000 0.000000 0.771318 -0.283725 0.031804 -2.969942 3.669251 0.796149 -3.028684 -16.092020 -0.685426 9.231829 17.286709 -2.372755 0.000000 0.000000 0.000000 0.000000 0.000000 0.000000 -0.309274 -0.001028 25.623632 1.098983 -0.360474 0.291787 0.319257 7.173199 2.030980 0.000000 0.000000 0.000000 0.170800 3.666119 25.538260 -2.016355 -3.101033 0.015427 3.605592 8.920117 -1.432934 0.000000 0.000000 0.000000
